<svg width="30" height="38" viewBox="0 0 30 38" fill="none" xmlns="http://www.w3.org/2000/svg">
<path d="M29.1 31.77L26.215 26.773L20.445 26.773L17.56 31.77L20.445 36.7669L26.215 36.7669L29.1 31.77Z" fill="#FF0000"/>
<rect x="14.8" y="27" width="10" height="10" transform="rotate(-30 14.8 27)" fill="#FF0000"/>
<rect x="6.64001" y="22" width="10" height="10" transform="rotate(30 6.64001 22)" fill="#FF0000"/>
<path d="M12.54 31.77L9.65498 26.773L3.88498 26.773L0.999978 31.77L3.88498 36.7669L9.65498 36.7669L12.54 31.77Z" fill="#FF0000"/>
<circle cx="15" cy="15" r="15" fill="#F1D44C"/>
<circle cx="15" cy="15" r="11" fill="#CFB643"/>
<path d="M12.6945 3.03274C12.6499 3.05115 12.3939 3.12685 12.1258 3.20459C11.5794 3.36212 11.427 3.41735 11.1914 3.53601C10.8014 3.73241 10.5841 3.982 10.4703 4.36457L10.4256 4.51187L10.2408 4.63053C10.1372 4.69395 9.9036 4.84739 9.71876 4.97014C9.53391 5.09288 9.37547 5.19927 9.36329 5.20541C9.35313 5.21154 9.36532 5.19108 9.38969 5.15835C9.57047 4.92308 9.73704 4.61212 9.84063 4.31956C9.90563 4.1293 10.1291 3.28642 10.1128 3.28642C10.06 3.28642 9.37141 3.73036 9.11954 3.92881C8.93469 4.07202 8.61579 4.3973 8.48376 4.57324C8.33344 4.77578 8.18922 5.05606 8.13235 5.26269C8.07141 5.48364 8.07141 5.76187 8.13438 5.94599L8.17907 6.07897L8.11001 6.1383C7.76875 6.43699 7.51688 6.67635 7.29141 6.91367L7.02125 7.19804L7.12079 7.00369C7.24063 6.76842 7.32594 6.51473 7.38688 6.20786C7.42344 6.0176 7.43157 5.90508 7.43157 5.56752C7.4336 5.19313 7.395 4.6203 7.36454 4.56097C7.35641 4.54665 7.27719 4.62848 7.16954 4.76555C6.26563 5.89485 6.095 6.21195 6.01985 6.8973C5.9711 7.36171 6.08079 7.98773 6.21485 8.00819C6.24125 8.01228 6.31032 7.96727 6.40375 7.88953L6.55204 7.76269L6.37125 8.00614C6.07469 8.40099 5.6725 9.02906 5.52219 9.3257C5.49375 9.38298 5.46735 9.4239 5.46125 9.41981C5.45719 9.41367 5.46329 9.36048 5.47344 9.2991C5.51407 9.08838 5.53032 8.74673 5.51407 8.47668C5.48969 8.08184 5.45313 7.93454 5.15454 6.98937C5.09157 6.79297 5.03469 6.62316 5.02657 6.61498C5.01032 6.59657 4.98188 6.68454 4.74219 7.43945C4.50047 8.20663 4.41922 8.53397 4.37657 8.9329C4.32172 9.42595 4.41516 9.80647 4.71985 10.3507L4.85391 10.5921L4.91282 10.5246C4.94532 10.4877 4.96563 10.4714 4.95954 10.4877C4.95344 10.5041 4.91282 10.6105 4.86813 10.725C4.76047 10.991 4.64469 11.3327 4.54922 11.6539C4.5086 11.795 4.47 11.9239 4.46391 11.9403C4.45782 11.9566 4.43141 11.8789 4.40704 11.7664C4.29532 11.2836 4.07797 10.768 3.82 10.3773C3.71641 10.2177 3.56813 9.98446 3.49297 9.85966C3.35688 9.63053 3.29188 9.5487 3.2675 9.57324C3.25938 9.58143 3.24516 9.75532 3.23703 9.95991C3.22688 10.1665 3.21063 10.4632 3.19844 10.6207C3.17 11.0381 3.17407 11.7091 3.2086 11.9607C3.30203 12.6584 3.51328 13.0593 3.93375 13.3335C4.00282 13.3785 4.08 13.4194 4.10641 13.4255C4.16125 13.4399 4.16125 13.4235 4.12266 13.7774C4.0861 14.1191 4.05157 14.6674 4.05157 14.9169V15.1011L3.93782 14.8883C3.71844 14.473 3.35282 13.9247 3.10703 13.6444C2.97907 13.4992 2.30063 12.9427 2.24985 12.9427C2.2275 12.9427 2.22141 12.957 2.22953 12.9877C2.25594 13.1125 2.37172 13.7079 2.4286 14.0168C2.66422 15.3077 3.01969 15.9787 3.70625 16.4329C3.8525 16.5291 4.10641 16.6702 4.14704 16.6764C4.14907 16.6764 4.16938 16.8012 4.19375 16.9525C4.2486 17.3003 4.34 17.7422 4.41516 18.0389C4.44766 18.1637 4.46797 18.2578 4.45985 18.2496C4.45172 18.2394 4.40297 18.1759 4.35219 18.1084C4.12469 17.8057 3.95 17.6686 2.76172 16.8666C2.45703 16.662 2.01016 16.3981 2.00407 16.4186C1.99594 16.4431 2.75157 17.9816 2.92422 18.2926C3.13547 18.669 3.24922 18.8245 3.49297 19.07C3.73672 19.3175 4.0211 19.5221 4.27907 19.6408C4.52688 19.7533 4.84782 19.8576 4.95141 19.8576C5.01844 19.8576 5.04688 19.8658 5.04688 19.8842C5.04688 19.9599 5.63594 21.0851 5.82891 21.3818C5.86141 21.4309 5.84313 21.4206 5.72735 21.3265C5.51204 21.1526 5.2561 20.9971 4.87422 20.8089C4.46188 20.6064 4.23844 20.5266 3.74891 20.3998C3.54782 20.3486 3.28375 20.2709 3.16391 20.2279C2.82266 20.1052 2.81657 20.1277 3.10297 20.4755C3.21672 20.6125 3.40563 20.8519 3.52141 21.0033C3.97032 21.5904 4.74016 22.2778 5.17485 22.4763C5.35563 22.5581 5.72532 22.6686 5.96907 22.7115C6.12547 22.7402 6.225 22.7443 6.42 22.734C6.55813 22.7279 6.69219 22.7136 6.7186 22.7034C6.76329 22.6849 6.7836 22.7013 6.92985 22.8711C7.28329 23.2803 7.79719 23.7856 8.19532 24.117C8.27047 24.1784 8.2136 24.1559 7.8825 23.9861C7.43157 23.757 7.38891 23.7447 6.75313 23.6547C5.71719 23.5074 4.53907 23.4133 4.53907 23.4767C4.53907 23.5053 4.66094 23.6015 5.09766 23.9186C5.85329 24.4689 6.18641 24.6714 6.61094 24.8351C7.2061 25.0663 7.51485 25.1358 7.96172 25.1358C8.36594 25.1358 8.64829 25.0806 8.98344 24.9374C9.15001 24.8658 9.15001 24.8638 9.11547 24.8228C9.09516 24.8003 9.13782 24.8208 9.21094 24.8699C9.59688 25.1318 10.4784 25.6084 10.8806 25.7701C10.9456 25.7966 10.9944 25.8212 10.9924 25.8253C10.9883 25.8294 10.8888 25.8151 10.773 25.7966C10.6166 25.7721 10.4358 25.7619 10.0844 25.7619C9.46688 25.7619 9.40391 25.7701 8.13438 26.0135C7.90485 26.0565 7.56969 26.1199 7.38891 26.1526C7.2061 26.1833 7.05985 26.2181 7.06391 26.2283C7.07407 26.257 8.64422 26.7255 8.91641 26.7807C9.31047 26.8605 9.57251 26.8809 10.0377 26.8687C10.8177 26.8482 11.2788 26.6948 11.7094 26.3142L11.9003 26.1465L12.1644 26.2222C12.4711 26.3102 12.8875 26.4043 13.1881 26.4575L13.3974 26.4943L13.2511 26.5311C12.8652 26.6334 12.6458 26.7295 11.4961 27.3044C10.6227 27.7422 10.3078 27.912 10.3078 27.9427C10.3078 27.9836 11.492 27.9386 12.0141 27.8773C12.597 27.8057 13.2328 27.6215 13.7305 27.376C14.0291 27.2287 14.2545 27.0466 14.4922 26.7664L14.6242 26.6088H15.0224H15.4205L15.7028 26.8768C16.2269 27.376 16.3061 27.419 17.1938 27.689C17.7524 27.8588 17.858 27.8752 18.9894 27.9509C19.8527 28.0082 19.8831 28.0061 19.7552 27.8977C19.6759 27.8302 19.2189 27.597 19.0158 27.5192C18.8289 27.4497 18.703 27.3842 18.4633 27.2328C18.0184 26.9525 17.3806 26.6866 16.7936 26.5372C16.7124 26.5168 16.6474 26.4963 16.6514 26.4943C16.6534 26.4922 16.8383 26.4534 17.0617 26.4063C17.4659 26.3245 17.9189 26.2058 18.2094 26.1097C18.313 26.0749 18.3475 26.0687 18.317 26.0912C18.2906 26.1076 18.2703 26.1444 18.2703 26.169C18.2703 26.2938 18.768 26.6068 19.2027 26.752C19.487 26.8482 19.7389 26.8789 20.2609 26.8809C20.6428 26.8809 20.7566 26.8748 20.9516 26.838C21.3436 26.7643 22.5969 26.394 22.8061 26.2876C22.8792 26.2508 22.8752 26.2079 22.7959 26.1813C22.6944 26.1506 21.9652 26.0053 21.5102 25.9255C20.6063 25.768 20.1086 25.7169 19.7795 25.7496C19.4322 25.7844 19.0199 25.858 18.8086 25.9235C18.6177 25.9808 18.6664 25.9521 18.9609 25.8335C19.1234 25.768 19.4342 25.6268 19.6516 25.5184C21.0267 24.8372 22.2231 23.8858 23.2611 22.6481C23.3444 22.5499 23.3464 22.5479 23.3424 22.6093C23.3363 22.6911 23.4114 22.7238 23.6349 22.7381C24.0939 22.7647 24.7764 22.5724 25.1766 22.3024C25.8814 21.8298 26.2064 21.5209 26.5802 20.9685C26.7549 20.7128 26.9905 20.4427 27.1834 20.2791C27.2545 20.2197 27.2606 20.1788 27.1956 20.1686C27.1733 20.1665 27.0149 20.2034 26.8422 20.2545C26.6695 20.3057 26.3974 20.3793 26.2409 20.4182C25.8916 20.5061 25.6945 20.5798 25.3655 20.7373C24.8881 20.9665 24.4433 21.257 24.1345 21.5372C23.9761 21.6825 23.972 21.6845 24.0309 21.5966C24.2991 21.2017 24.752 20.3691 24.9227 19.9599C24.9531 19.8863 24.9816 19.8228 24.9856 19.8187C24.9897 19.8147 25.012 19.8269 25.0344 19.8474C25.0689 19.8801 25.0872 19.8822 25.1847 19.8617C25.4772 19.8024 26.0033 19.5548 26.2836 19.3462C26.4989 19.1845 26.7569 18.9247 26.8788 18.7447C27.0677 18.4685 27.6445 17.3597 27.8964 16.7868C27.998 16.5557 28.0183 16.482 27.9817 16.482C27.9391 16.482 27.0392 17.0548 26.5355 17.4047C26.0663 17.7279 25.7941 17.9857 25.5727 18.313C25.5199 18.3908 25.4752 18.4583 25.4731 18.4603C25.4691 18.4644 25.4995 18.3539 25.5361 18.2148C25.6519 17.7913 25.7819 17.1571 25.8367 16.7459C25.8469 16.6579 25.8509 16.6539 25.9038 16.662C25.9424 16.6661 26.0114 16.6416 26.117 16.5884C26.6411 16.3142 26.9722 15.9746 27.2342 15.4489C27.4394 15.0336 27.5409 14.6796 27.6831 13.8838C27.7359 13.5974 27.8009 13.2782 27.8294 13.1739C27.9106 12.8813 27.8842 12.8466 27.7034 13C27.5288 13.1473 26.9031 13.7958 26.6614 14.0782C26.3405 14.4546 26.1475 14.7717 26.0074 15.1502L25.9505 15.3057L25.9484 15.0295C25.9484 14.5835 25.8774 13.626 25.8327 13.4337L25.8205 13.3826L25.8692 13.4276C25.9139 13.4685 25.9241 13.4685 25.9952 13.4439C26.0967 13.4092 26.2694 13.2721 26.4156 13.1125C26.7975 12.6931 26.9661 11.9096 26.9072 10.8314C26.8828 10.367 26.8239 9.59575 26.8097 9.5487C26.7914 9.48732 26.0988 10.6596 25.8875 11.1056C25.7088 11.4902 25.6864 11.6027 25.6824 12.1448L25.6803 12.5233L25.6316 12.329C25.532 11.9341 25.4549 11.66 25.3655 11.3797C25.2659 11.0667 25.0039 10.3834 24.9105 10.1972C24.8109 9.99878 24.8455 10.0356 24.9734 10.2668C25.1095 10.5102 25.1522 10.5491 25.2274 10.5C25.4122 10.3773 25.7047 9.64689 25.7392 9.22545C25.7453 9.14362 25.7392 9.00655 25.727 8.91858C25.6702 8.55442 25.4813 7.84657 25.2741 7.22873C25.1441 6.83797 25.1217 6.78478 25.0831 6.78478C25.0202 6.78478 24.7338 7.48036 24.6566 7.82815C24.5855 8.13912 24.5855 9.40958 24.6566 9.60189C24.6728 9.65099 24.683 9.68986 24.6789 9.68986C24.6749 9.68986 24.62 9.59166 24.557 9.47095C24.1792 8.76105 23.7039 8.05933 23.1514 7.40058C22.9056 7.10598 22.2699 6.46154 21.9997 6.23036C21.8433 6.09739 21.8067 6.05647 21.8372 6.05033C21.9002 6.0401 21.9205 6.01146 21.9449 5.91122C21.9753 5.79256 21.9774 5.39567 21.9469 5.26064C21.9063 5.07038 21.8189 4.90262 21.6138 4.62644C21.4472 4.4014 21.0024 3.9595 20.7688 3.7856C20.5474 3.61989 20.0842 3.32734 20.0436 3.32734C20.003 3.32734 20.0111 3.44804 20.07 3.68126C20.133 3.93904 20.267 4.39117 20.3158 4.51392C20.4011 4.72873 20.5717 4.99059 20.8094 5.27496L20.9008 5.38339L20.8297 5.33634C20.6652 5.22791 20.5311 5.15221 20.1188 4.92513L19.682 4.68577L19.6678 4.56302C19.6211 4.13339 19.2636 3.71195 18.7355 3.46236C18.5547 3.37644 17.4781 3.03683 17.2953 3.00819C17.2263 2.99591 17.2141 3 17.2141 3.03069C17.2141 3.1248 17.7727 3.84902 18.0977 4.1784C18.4084 4.49346 18.7274 4.67144 19.1559 4.76964L19.3652 4.8167L19.8283 5.13789C20.1208 5.34043 20.2691 5.455 20.2305 5.44681C19.9299 5.38544 19.5927 5.3793 19.2819 5.43249C18.7538 5.52455 17.9088 5.79256 17.8234 5.89485C17.7706 5.95827 17.9128 5.991 18.5364 6.05851C18.7984 6.08511 19.1214 6.12398 19.2555 6.14239C19.7836 6.21195 20.8744 6.19968 21.1039 6.11784C21.2014 6.08511 21.1933 6.07897 21.5772 6.40426C21.9164 6.68863 22.0261 6.79092 21.9774 6.77455C21.5366 6.61703 20.8825 6.54338 20.2488 6.5802C19.9014 6.59861 19.7938 6.62316 19.7938 6.68249C19.7938 6.7275 19.8405 6.75819 20.0477 6.84616C20.137 6.88298 20.462 7.03233 20.7688 7.17554C21.7478 7.62971 22.0972 7.73609 22.7533 7.77906L22.9645 7.79338L23.0417 7.88748C23.2469 8.13912 23.6938 8.74878 23.6938 8.77946C23.6938 8.7856 23.6511 8.75901 23.5983 8.72014C23.4439 8.60966 23.0925 8.42963 22.8386 8.33347C22.2028 8.09002 21.4797 7.92431 21.4797 8.02046C21.4797 8.03683 21.5731 8.13298 21.6889 8.23323C22.0139 8.5176 22.9625 9.30524 23.1392 9.43617C23.5414 9.73691 24.1163 10.0704 24.3417 10.1318L24.4717 10.1686L24.5428 10.3241C24.7134 10.7025 24.9999 11.4656 24.947 11.4084C24.5672 10.991 24.362 10.7987 24.1345 10.6453C23.7039 10.3548 22.8772 9.93331 22.8284 9.98036C22.8081 10.0029 22.8772 10.1093 23.0356 10.2934C23.3363 10.6453 23.5902 11.0135 23.8319 11.4493C23.905 11.5782 24.0228 11.7623 24.0959 11.8564C24.3722 12.2144 24.9145 12.7115 25.2274 12.8957C25.3005 12.9386 25.3634 12.9877 25.3695 13.0041C25.3899 13.0716 25.4833 13.7733 25.5117 14.0884C25.5402 14.3973 25.5503 14.7287 25.528 14.6305C25.4589 14.3134 25.2497 13.8511 25.077 13.6322C24.9145 13.4276 23.7831 12.2737 23.7628 12.2921C23.7303 12.3269 24.1995 13.8286 24.4047 14.3441C24.6566 14.9783 25.01 15.5593 25.3899 15.9685L25.5158 16.1035L25.4995 16.2672C25.4528 16.7275 25.3066 17.6256 25.2741 17.6604C25.27 17.6645 25.2558 17.5724 25.2416 17.4579C25.1908 16.9996 25.0689 16.6804 24.6809 16.0033C24.3214 15.3711 24.0756 15.0008 24.0309 15.0151C23.9944 15.0274 23.9944 15.2115 24.0289 15.7966C24.0797 16.6743 24.1386 17.3944 24.1833 17.6993C24.2422 18.09 24.5063 18.7304 24.7358 19.0352L24.8313 19.1661L24.7175 19.4444C24.5428 19.8719 24.0228 20.9174 24.0878 20.7128C24.0939 20.6923 24.1102 20.5737 24.1224 20.4489C24.1569 20.1215 24.1345 19.5016 24.0797 19.203C23.9172 18.313 23.6978 17.6972 23.5861 17.8097C23.5739 17.822 23.5536 17.9366 23.5394 18.0675C23.513 18.2946 23.4724 18.493 23.2591 19.4341C23.1149 20.0724 23.0803 20.2995 23.0702 20.6821C23.058 21.0953 23.0864 21.2958 23.2205 21.6845L23.3078 21.9484L23.2022 22.0835C22.9909 22.3556 22.4669 22.9673 22.4445 22.9673C22.4405 22.9673 22.4466 22.9366 22.4567 22.8998C22.5989 22.4026 22.6497 21.5843 22.5867 20.7782C22.5684 20.5246 22.5481 20.3159 22.5461 20.3118C22.542 20.3077 22.4831 20.4182 22.4141 20.5573C22.1947 20.989 21.8494 21.615 21.7113 21.8277C21.3192 22.4313 21.2197 22.7668 21.1709 23.671L21.1466 24.1334L20.8622 24.3339C20.5027 24.5876 20.0172 24.8965 20.0009 24.8801C19.9969 24.876 20.0253 24.829 20.0639 24.7737C20.2914 24.4525 20.5331 23.894 20.657 23.3969C20.7119 23.1821 20.8155 22.5683 20.8053 22.5336C20.7952 22.5049 19.7105 23.5626 19.4139 23.8899C18.7741 24.5998 18.5852 24.921 18.5059 25.4407L18.4816 25.5941L18.1789 25.6944C18.0103 25.7496 17.7381 25.8314 17.5695 25.8744L17.2649 25.9521L17.3563 25.8785C17.6975 25.6002 18.1606 25.0172 18.3719 24.5957C18.4389 24.4628 18.5324 24.1804 18.5344 24.1088C18.5344 24.1007 18.4267 24.1457 18.2967 24.2091C17.9595 24.3687 17.8052 24.4341 17.3867 24.5937C16.7367 24.8392 16.4991 24.9865 16.1863 25.3425C15.9019 25.6657 15.7211 25.9726 15.7374 26.0994L15.7475 26.1731L15.6236 26.1874C15.5566 26.1935 15.2559 26.1997 14.9574 26.1997C14.545 26.1997 14.4089 26.1935 14.3967 26.1731C14.3886 26.1608 14.3399 26.0503 14.287 25.9296C14.2363 25.8089 14.1611 25.6575 14.1245 25.5941C13.8645 25.1624 13.4705 24.8883 12.6844 24.5937C12.2517 24.43 11.9795 24.3134 11.7358 24.1804C11.62 24.1191 11.5266 24.0782 11.5266 24.0884C11.5266 24.1416 11.62 24.4034 11.683 24.5323C11.8983 24.962 12.4325 25.6289 12.7697 25.8887C12.8245 25.9296 12.8611 25.9665 12.8509 25.9705C12.8103 25.9828 11.9491 25.7475 11.6586 25.6412L11.5774 25.6125L11.5631 25.4632C11.5124 24.9722 11.3295 24.6408 10.7689 24.0311C10.6288 23.8797 10.2347 23.4685 9.89344 23.1207L9.26985 22.4865L9.28204 22.5786C9.36532 23.2025 9.55422 23.9002 9.76141 24.338C9.86907 24.563 9.94016 24.6858 10.0702 24.8678L10.1494 24.9763L10.0519 24.919C9.66391 24.696 8.94688 24.2234 8.91641 24.1743C8.91032 24.1661 8.92251 24.0822 8.94079 23.9881C9.04844 23.4133 8.77829 22.462 8.27657 21.66C8.13235 21.4309 7.82563 20.8703 7.655 20.5266C7.60625 20.4284 7.5575 20.3486 7.54735 20.3486C7.50672 20.3486 7.48844 21.8871 7.525 22.3392C7.54938 22.6399 7.60016 22.8527 7.6875 23.0327L7.75047 23.1616L7.64485 23.0593C7.49047 22.9079 7.08625 22.4497 6.89735 22.2124L6.73485 22.0057L6.77344 21.9382C6.8811 21.7664 6.99079 21.2488 7.0111 20.8273C7.02938 20.4386 6.9725 20.0642 6.73079 18.9881C6.57844 18.3192 6.50938 17.957 6.50938 17.8343C6.50938 17.7443 6.48094 17.689 6.44844 17.7218C6.43625 17.734 6.38954 17.8282 6.34688 17.9304C6.13766 18.4214 5.87969 19.6939 5.9061 20.1133C5.91829 20.2811 6.0036 20.8417 6.03407 20.9337C6.04016 20.9562 5.9975 20.8948 5.94063 20.7987C5.79438 20.5552 5.41657 19.7799 5.2825 19.4484L5.17282 19.1743L5.24188 19.1211C5.46735 18.9513 5.79438 18.2823 5.86954 17.8363C5.96094 17.2962 6.11329 15.1338 6.0625 15.0827C6.00766 15.0274 5.71719 15.4366 5.36985 16.0626C4.97579 16.7746 4.85391 17.1551 4.82547 17.7606L4.81329 18.0471L4.76657 17.8527C4.66094 17.4169 4.56141 16.8482 4.51875 16.4411C4.50657 16.3224 4.49235 16.1997 4.48829 16.1669C4.48016 16.1158 4.48219 16.1117 4.5086 16.1342C4.55329 16.171 4.59797 16.124 4.87422 15.7557C5.17282 15.3548 5.43282 14.964 5.51407 14.7921C5.575 14.6612 5.79032 14.0782 5.835 13.9247C5.84516 13.8858 5.89391 13.7345 5.9386 13.5892C6.06047 13.2066 6.25954 12.5376 6.28188 12.4354C6.29407 12.3883 6.29407 12.3494 6.28594 12.3494C6.23516 12.3494 5.33532 13.2373 5.12407 13.4951C4.81532 13.8715 4.60204 14.3257 4.48829 14.8515C4.46797 14.9394 4.44969 15.007 4.44563 15.0029C4.43141 14.9906 4.47813 14.1702 4.50657 13.894C4.52282 13.7467 4.55532 13.4869 4.58172 13.3151C4.61829 13.0634 4.6325 13.0041 4.65891 13.0041C4.70766 13.0041 4.83969 12.9223 5.05094 12.7647C5.53641 12.4006 5.89391 11.9832 6.51954 11.0503C6.68407 10.8028 6.92375 10.4611 7.05172 10.2913C7.17766 10.1215 7.28125 9.96809 7.28125 9.94968C7.28125 9.90467 7.21625 9.92717 6.96235 10.0561C6.49313 10.2934 5.80047 10.7271 5.56485 10.9296C5.41657 11.0585 5.19516 11.3122 5.05094 11.5188C5.00422 11.5863 4.96563 11.6354 4.96563 11.6293C4.96563 11.5638 5.27235 10.7435 5.42469 10.3936L5.5161 10.189L5.63391 10.1645C5.84922 10.1195 6.34079 9.85557 6.81407 9.53233C7.14719 9.3032 7.35641 9.13953 7.67735 8.85107C7.8236 8.72014 8.06125 8.5176 8.20547 8.39689C8.52235 8.13707 8.58532 8.0757 8.57719 8.03478C8.56704 7.98364 8.37001 7.99796 8.06329 8.07161C7.40719 8.22914 6.86891 8.46441 6.42 8.78765C6.33266 8.85107 6.24125 8.91653 6.21891 8.9329C6.13157 8.99632 6.76938 8.09002 6.98469 7.84861C7.0375 7.78928 7.04157 7.78724 7.2325 7.78724C7.76063 7.78724 8.35376 7.62971 9.01797 7.31261C9.20891 7.22259 9.5136 7.07938 9.69844 6.99755C10.1859 6.77865 10.257 6.74182 10.2631 6.69068C10.2672 6.6559 10.253 6.64158 10.2022 6.62112C10.0214 6.5577 9.06266 6.56179 8.64219 6.6293C8.44922 6.65999 8.15876 6.73773 8.01657 6.79501L7.94141 6.8257L8.04297 6.73364C8.19532 6.59452 8.57516 6.27333 8.71532 6.16694L8.83719 6.07284L8.99969 6.11989C9.39782 6.23446 9.98079 6.23855 10.8461 6.13012C11.5225 6.04624 11.8922 6.00737 12.0324 6.00532C12.1603 6.00532 12.2802 5.97054 12.2944 5.92963C12.3127 5.86825 11.6261 5.60639 11.1894 5.50819C11.0675 5.47955 10.8786 5.44681 10.7689 5.43249C10.517 5.4018 9.91985 5.42022 9.74922 5.46318C9.68219 5.47955 9.62532 5.48978 9.62329 5.48773C9.62126 5.48568 9.69844 5.42226 9.79594 5.34861C9.89344 5.27496 10.0945 5.12153 10.2428 5.00696C10.3931 4.89444 10.5231 4.80647 10.5333 4.81261C10.5759 4.83716 10.9842 4.77578 11.1386 4.72054C11.4738 4.60189 11.8374 4.33388 12.203 3.93699C12.6824 3.41531 12.9119 3.0757 12.8245 3.01842C12.79 2.99591 12.7941 2.99591 12.6945 3.03274Z" fill="#D9A404"/>
<path d="M22.668 4.75943C22.672 4.91083 22.6822 5.23816 22.6883 5.4857C22.7025 6.03398 22.7309 6.35313 22.7817 6.55772C22.8345 6.76639 23.0336 7.16533 23.1941 7.37809C23.3769 7.62359 23.7913 8.0123 23.8685 8.0123C24.0249 8.0123 24.1244 7.07531 24.0167 6.59045C23.9335 6.20379 23.7364 5.82122 23.3931 5.37318C23.2631 5.20542 22.8284 4.67556 22.7127 4.54667L22.6558 4.48325L22.668 4.75943Z" fill="#D9A404"/>
<path d="M24.9531 23.4931C23.6917 23.5831 23.3119 23.6301 22.8589 23.7447C22.3105 23.8838 21.9123 24.0782 21.433 24.4362C21.1161 24.6735 21.0308 24.786 21.0836 24.8924C21.1608 25.0397 21.7986 25.1788 22.2617 25.1481C22.7959 25.1113 23.4175 24.9067 23.9517 24.5917C24.5652 24.2295 25.4447 23.626 25.4752 23.5462C25.4813 23.5299 25.4752 23.5074 25.4589 23.4971C25.4325 23.4808 25.1563 23.4787 24.9531 23.4931Z" fill="#D9A404"/>
<g clip-path="url(#clip0)">
<path d="M20.4732 14.0344L12.6161 9.15705C11.9777 8.76096 11 9.14533 11 10.125V19.8774C11 20.7563 11.9085 21.286 12.6161 20.8453L20.4732 15.9703C21.1741 15.5367 21.1763 14.468 20.4732 14.0344V14.0344Z" fill="#212121"/>
</g>
<defs>
<clipPath id="clip0">
<rect width="10" height="12" fill="white" transform="translate(11 9)"/>
</clipPath>
</defs>
</svg>
